<?xml version="1.0" encoding="UTF-8" standalone="no"?><!DOCTYPE svg PUBLIC "-//W3C//DTD SVG 1.1//EN" "http://www.w3.org/Graphics/SVG/1.1/DTD/svg11.dtd"><svg width="100%" height="100%" viewBox="0 0 400 196" version="1.1" xmlns="http://www.w3.org/2000/svg" xmlns:xlink="http://www.w3.org/1999/xlink" xml:space="preserve" xmlns:serif="http://www.serif.com/" style="fill-rule:evenodd;clip-rule:evenodd;stroke-linejoin:round;stroke-miterlimit:1.41421;"><path id="DiamondStar" d="M73.196,165.692c0,-49.23 -24.615,-73.846 -49.23,-73.846c24.615,0 49.23,-24.615 49.23,-73.846c0,49.231 24.616,73.846 49.231,73.846c-24.615,0 -49.231,24.616 -49.231,86.154l0,-12.308Z" style="fill:url(#_Radial1);"/><g><path d="M169.074,88.892c0,0.096 -0.132,0.168 -0.396,0.216c-0.264,0.048 -0.42,0 -0.468,-0.144c-0.768,-2.784 -2.064,-4.848 -3.888,-6.192c-1.824,-1.344 -4.224,-2.016 -7.2,-2.016l-2.16,0c-1.44,0 -2.496,0.312 -3.168,0.936c-0.672,0.624 -1.008,1.584 -1.008,2.88l0,15.552l5.184,0c2.784,0 4.908,-0.492 6.372,-1.476c1.464,-0.984 2.196,-2.34 2.196,-4.068c0,-0.096 0.144,-0.144 0.432,-0.144c0.288,0 0.432,0.048 0.432,0.144l-0.072,6.552c0,1.536 0.024,2.688 0.072,3.456l0.072,3.816c0,0.144 -0.144,0.216 -0.432,0.216c-0.288,0 -0.432,-0.072 -0.432,-0.216c0,-1.92 -0.756,-3.444 -2.268,-4.572c-1.512,-1.128 -3.66,-1.692 -6.444,-1.692l-5.112,0l0,15.408c0,1.488 0.192,2.592 0.576,3.312c0.384,0.72 1.104,1.224 2.16,1.512c1.056,0.288 2.712,0.432 4.968,0.432c0.096,0 0.144,0.144 0.144,0.432c0,0.288 -0.048,0.432 -0.144,0.432c-1.968,0 -3.504,-0.024 -4.608,-0.072l-7.344,-0.072l-5.4,0.072c-0.96,0.048 -2.28,0.072 -3.96,0.072c-0.144,0 -0.216,-0.144 -0.216,-0.432c0,-0.288 0.072,-0.432 0.216,-0.432c1.68,0 2.904,-0.12 3.672,-0.36c0.768,-0.24 1.284,-0.708 1.548,-1.404c0.264,-0.696 0.396,-1.764 0.396,-3.204l0,-33.336c0,-1.44 -0.12,-2.496 -0.36,-3.168c-0.24,-0.672 -0.72,-1.14 -1.44,-1.404c-0.72,-0.264 -1.824,-0.396 -3.312,-0.396c-0.144,0 -0.216,-0.144 -0.216,-0.432c0,-0.288 0.072,-0.432 0.216,-0.432l30.528,0c0.48,0 0.72,0.216 0.72,0.648l0.144,9.576Z" style="fill:url(#_Linear2);fill-rule:nonzero;"/><path d="M188.082,124.604c-2.976,0 -5.58,-0.684 -7.812,-2.052c-2.232,-1.368 -3.948,-3.216 -5.148,-5.544c-1.2,-2.328 -1.8,-4.86 -1.8,-7.596c0,-3.12 0.792,-5.772 2.376,-7.956c1.584,-2.184 3.6,-3.816 6.048,-4.896c2.448,-1.08 4.968,-1.62 7.56,-1.62c2.976,0 5.568,0.696 7.776,2.088c2.208,1.392 3.9,3.228 5.076,5.508c1.176,2.28 1.764,4.716 1.764,7.308c0,2.88 -0.72,5.436 -2.16,7.668c-1.44,2.232 -3.372,3.972 -5.796,5.22c-2.424,1.248 -5.052,1.872 -7.884,1.872Zm2.16,-1.512c1.872,0 3.3,-0.924 4.284,-2.772c0.984,-1.848 1.476,-4.5 1.476,-7.956c0,-3.36 -0.432,-6.24 -1.296,-8.64c-0.864,-2.4 -1.992,-4.212 -3.384,-5.436c-1.392,-1.224 -2.88,-1.836 -4.464,-1.836c-3.84,0 -5.76,3.432 -5.76,10.296c0,3.216 0.408,6.06 1.224,8.532c0.816,2.472 1.92,4.392 3.312,5.76c1.392,1.368 2.928,2.052 4.608,2.052Z" style="fill:url(#_Linear3);fill-rule:nonzero;"/><path d="M215.946,88.028c-1.392,0 -2.472,-0.384 -3.24,-1.152c-0.768,-0.768 -1.152,-1.848 -1.152,-3.24c0,-1.248 0.396,-2.244 1.188,-2.988c0.792,-0.744 1.86,-1.116 3.204,-1.116c1.344,0 2.376,0.36 3.096,1.08c0.72,0.72 1.08,1.728 1.08,3.024c0,1.392 -0.36,2.472 -1.08,3.24c-0.72,0.768 -1.752,1.152 -3.096,1.152Zm-6.912,35.64c-0.144,0 -0.216,-0.144 -0.216,-0.432c0,-0.288 0.072,-0.432 0.216,-0.432c1.488,0 2.496,-0.348 3.024,-1.044c0.528,-0.696 0.792,-2.004 0.792,-3.924l0,-12.888c0,-1.632 -0.168,-2.808 -0.504,-3.528c-0.336,-0.72 -0.888,-1.08 -1.656,-1.08c-0.624,0 -1.512,0.264 -2.664,0.792l-0.072,0c-0.192,0 -0.336,-0.132 -0.432,-0.396c-0.096,-0.264 -0.072,-0.42 0.072,-0.468l10.872,-5.04l0.216,-0.072c0.24,0 0.48,0.12 0.72,0.36c0.24,0.24 0.36,0.456 0.36,0.648l0,1.584c-0.096,1.92 -0.144,4.272 -0.144,7.056l0,13.032c0,1.92 0.276,3.228 0.828,3.924c0.552,0.696 1.572,1.044 3.06,1.044c0.144,0 0.216,0.144 0.216,0.432c0,0.288 -0.072,0.432 -0.216,0.432c-1.248,0 -2.232,-0.024 -2.952,-0.072l-4.32,-0.072l-4.248,0.072c-0.72,0.048 -1.704,0.072 -2.952,0.072Z" style="fill:url(#_Linear4);fill-rule:nonzero;"/><path d="M227.682,123.668c-0.096,0 -0.144,-0.144 -0.144,-0.432c0,-0.288 0.048,-0.432 0.144,-0.432c1.488,0 2.508,-0.348 3.06,-1.044c0.552,-0.696 0.828,-2.004 0.828,-3.924l0.072,-36.576c0,-1.68 -0.156,-2.88 -0.468,-3.6c-0.312,-0.72 -0.852,-1.08 -1.62,-1.08c-0.624,0 -1.536,0.264 -2.736,0.792l-0.072,0c-0.144,0 -0.276,-0.132 -0.396,-0.396c-0.12,-0.264 -0.132,-0.42 -0.036,-0.468l10.584,-4.968l0.288,-0.072c0.24,0 0.504,0.108 0.792,0.324c0.288,0.216 0.432,0.42 0.432,0.612l0,45.432c0,1.92 0.264,3.228 0.792,3.924c0.528,0.696 1.536,1.044 3.024,1.044c0.192,0 0.288,0.144 0.288,0.432c0,0.288 -0.096,0.432 -0.288,0.432c-1.2,0 -2.16,-0.024 -2.88,-0.072l-4.392,-0.072l-4.32,0.072c-0.72,0.048 -1.704,0.072 -2.952,0.072Z" style="fill:url(#_Linear5);fill-rule:nonzero;"/><path d="M267.426,71.396c2.448,0 4.452,0.372 6.012,1.116c1.56,0.744 2.34,1.644 2.34,2.7c0,0.72 -0.252,1.284 -0.756,1.692c-0.504,0.408 -1.092,0.612 -1.764,0.612c-0.576,0 -1.08,-0.144 -1.512,-0.432c-0.432,-0.288 -0.888,-0.768 -1.368,-1.44c-0.72,-1.008 -1.5,-1.764 -2.34,-2.268c-0.84,-0.504 -1.884,-0.756 -3.132,-0.756c-2.784,0 -4.992,1.608 -6.624,4.824c-1.632,3.216 -2.448,8.088 -2.448,14.616l0,4.608c2.208,-0.048 5.28,-0.288 9.216,-0.72c0.144,0 0.264,0.168 0.36,0.504c0.096,0.336 0.144,0.744 0.144,1.224c0,0.384 -0.072,0.78 -0.216,1.188c-0.144,0.408 -0.312,0.588 -0.504,0.54c-2.784,-0.672 -5.784,-1.056 -9,-1.152l0,19.584c0,1.488 0.168,2.568 0.504,3.24c0.336,0.672 0.984,1.128 1.944,1.368c0.96,0.24 2.496,0.36 4.608,0.36c0.144,0 0.216,0.144 0.216,0.432c0,0.288 -0.072,0.432 -0.216,0.432l-4.608,-0.072c-1.008,-0.048 -2.544,-0.072 -4.608,-0.072l-4.032,0.072c-0.672,0.048 -1.632,0.072 -2.88,0.072c-0.144,0 -0.216,-0.144 -0.216,-0.432c0,-0.288 0.072,-0.432 0.216,-0.432c1.44,0 2.496,-0.132 3.168,-0.396c0.672,-0.264 1.14,-0.732 1.404,-1.404c0.264,-0.672 0.396,-1.728 0.396,-3.168l0,-16.2c0,-1.248 -0.12,-2.124 -0.36,-2.628c-0.24,-0.504 -0.708,-0.84 -1.404,-1.008c-0.696,-0.168 -1.86,-0.252 -3.492,-0.252c-0.144,0 -0.216,-0.156 -0.216,-0.468c0,-0.312 0.072,-0.468 0.216,-0.468c1.968,0 3.3,-0.228 3.996,-0.684c0.696,-0.456 1.068,-1.308 1.116,-2.556c0.24,-7.776 1.668,-13.416 4.284,-16.92c2.616,-3.504 6.468,-5.256 11.556,-5.256Z" style="fill:#9e99ad;fill-rule:nonzero;"/><path d="M283.05,124.604c-2.784,0 -5.244,-0.684 -7.38,-2.052c-2.136,-1.368 -3.78,-3.216 -4.932,-5.544c-1.152,-2.328 -1.728,-4.86 -1.728,-7.596c0,-3.12 0.756,-5.772 2.268,-7.956c1.512,-2.184 3.456,-3.816 5.832,-4.896c2.376,-1.08 4.788,-1.62 7.236,-1.62c2.832,0 5.304,0.696 7.416,2.088c2.112,1.392 3.732,3.228 4.86,5.508c1.128,2.28 1.692,4.692 1.692,7.236c0,2.976 -0.696,5.58 -2.088,7.812c-1.392,2.232 -3.252,3.96 -5.58,5.184c-2.328,1.224 -4.86,1.836 -7.596,1.836Zm2.088,-1.368c2.64,0 4.68,-0.936 6.12,-2.808c1.44,-1.872 2.16,-4.752 2.16,-8.64c0,-2.976 -0.492,-5.64 -1.476,-7.992c-0.984,-2.352 -2.34,-4.188 -4.068,-5.508c-1.728,-1.32 -3.696,-1.98 -5.904,-1.98c-2.592,0 -4.596,0.936 -6.012,2.808c-1.416,1.872 -2.124,4.56 -2.124,8.064c0,2.928 0.48,5.616 1.44,8.064c0.96,2.448 2.304,4.392 4.032,5.832c1.728,1.44 3.672,2.16 5.832,2.16Z" style="fill:#9e99ad;fill-rule:nonzero;"/><path d="M303.786,123.668c-0.144,0 -0.216,-0.144 -0.216,-0.432c0,-0.288 0.072,-0.432 0.216,-0.432c1.296,0 2.256,-0.132 2.88,-0.396c0.624,-0.264 1.056,-0.744 1.296,-1.44c0.24,-0.696 0.36,-1.74 0.36,-3.132l0,-37.224c0,-1.728 -0.168,-2.976 -0.504,-3.744c-0.336,-0.768 -0.936,-1.152 -1.8,-1.152c-0.72,0 -1.824,0.336 -3.312,1.008l-0.144,0c-0.144,0 -0.252,-0.12 -0.324,-0.36c-0.072,-0.24 -0.036,-0.384 0.108,-0.432l9.216,-4.392c0.096,-0.048 0.216,-0.072 0.36,-0.072c0.096,0 0.228,0.06 0.396,0.18c0.168,0.12 0.252,0.252 0.252,0.396l0,45.792c0,1.392 0.108,2.424 0.324,3.096c0.216,0.672 0.636,1.152 1.26,1.44c0.624,0.288 1.584,0.432 2.88,0.432c0.144,0 0.216,0.144 0.216,0.432c0,0.288 -0.072,0.432 -0.216,0.432c-1.056,0 -1.92,-0.024 -2.592,-0.072l-4.032,-0.072l-3.888,0.072c-0.672,0.048 -1.584,0.072 -2.736,0.072Z" style="fill:#9e99ad;fill-rule:nonzero;"/><path d="M329.346,86.804c-1.008,0 -1.788,-0.264 -2.34,-0.792c-0.552,-0.528 -0.828,-1.272 -0.828,-2.232c0,-0.96 0.276,-1.704 0.828,-2.232c0.552,-0.528 1.332,-0.792 2.34,-0.792c0.96,0 1.704,0.264 2.232,0.792c0.528,0.528 0.792,1.272 0.792,2.232c0,0.96 -0.264,1.704 -0.792,2.232c-0.528,0.528 -1.272,0.792 -2.232,0.792Zm-6.048,36.864c-0.096,0 -0.144,-0.144 -0.144,-0.432c0,-0.288 0.048,-0.432 0.144,-0.432c1.296,0 2.268,-0.132 2.916,-0.396c0.648,-0.264 1.092,-0.744 1.332,-1.44c0.24,-0.696 0.36,-1.74 0.36,-3.132l0,-13.464c0,-1.728 -0.18,-2.976 -0.54,-3.744c-0.36,-0.768 -0.972,-1.152 -1.836,-1.152c-0.864,0 -1.944,0.336 -3.24,1.008l-0.072,0c-0.192,0 -0.336,-0.12 -0.432,-0.36c-0.096,-0.24 -0.072,-0.408 0.072,-0.504l9.36,-4.32l0.288,-0.072c0.096,0 0.216,0.06 0.36,0.18c0.144,0.12 0.216,0.252 0.216,0.396c0,0.336 -0.024,1.296 -0.072,2.88c-0.048,1.584 -0.072,3.456 -0.072,5.616l0,13.536c0,1.44 0.12,2.496 0.36,3.168c0.24,0.672 0.672,1.14 1.296,1.404c0.624,0.264 1.584,0.396 2.88,0.396c0.144,0 0.216,0.144 0.216,0.432c0,0.288 -0.072,0.432 -0.216,0.432c-1.104,0 -1.992,-0.024 -2.664,-0.072l-3.888,-0.072l-3.888,0.072c-0.672,0.048 -1.584,0.072 -2.736,0.072Z" style="fill:#9e99ad;fill-rule:nonzero;"/><path d="M355.77,124.604c-2.784,0 -5.244,-0.684 -7.38,-2.052c-2.136,-1.368 -3.78,-3.216 -4.932,-5.544c-1.152,-2.328 -1.728,-4.86 -1.728,-7.596c0,-3.12 0.756,-5.772 2.268,-7.956c1.512,-2.184 3.456,-3.816 5.832,-4.896c2.376,-1.08 4.788,-1.62 7.236,-1.62c2.832,0 5.304,0.696 7.416,2.088c2.112,1.392 3.732,3.228 4.86,5.508c1.128,2.28 1.692,4.692 1.692,7.236c0,2.976 -0.696,5.58 -2.088,7.812c-1.392,2.232 -3.252,3.96 -5.58,5.184c-2.328,1.224 -4.86,1.836 -7.596,1.836Zm2.088,-1.368c2.64,0 4.68,-0.936 6.12,-2.808c1.44,-1.872 2.16,-4.752 2.16,-8.64c0,-2.976 -0.492,-5.64 -1.476,-7.992c-0.984,-2.352 -2.34,-4.188 -4.068,-5.508c-1.728,-1.32 -3.696,-1.98 -5.904,-1.98c-2.592,0 -4.596,0.936 -6.012,2.808c-1.416,1.872 -2.124,4.56 -2.124,8.064c0,2.928 0.48,5.616 1.44,8.064c0.96,2.448 2.304,4.392 4.032,5.832c1.728,1.44 3.672,2.16 5.832,2.16Z" style="fill:#9e99ad;fill-rule:nonzero;"/></g><defs><radialGradient id="_Radial1" cx="0" cy="0" r="1" gradientUnits="userSpaceOnUse" gradientTransform="matrix(49.2308,0,0,80,73.1964,98)"><stop offset="0" style="stop-color:#ff9c58;stop-opacity:1"/><stop offset="0.64" style="stop-color:#fa9258;stop-opacity:1"/><stop offset="0.83" style="stop-color:#ec7858;stop-opacity:1"/><stop offset="1" style="stop-color:#dd5a59;stop-opacity:1"/></radialGradient><linearGradient id="_Linear2" x1="0" y1="0" x2="1" y2="0" gradientUnits="userSpaceOnUse" gradientTransform="matrix(20.728,38.264,-38.264,20.728,189.594,100.736)"><stop offset="0" style="stop-color:#ff9c58;stop-opacity:1"/><stop offset="1" style="stop-color:#ff58c0;stop-opacity:1"/></linearGradient><linearGradient id="_Linear3" x1="0" y1="0" x2="1" y2="0" gradientUnits="userSpaceOnUse" gradientTransform="matrix(20.728,38.264,-38.264,20.728,189.594,100.736)"><stop offset="0" style="stop-color:#ff9c58;stop-opacity:1"/><stop offset="1" style="stop-color:#ff58c0;stop-opacity:1"/></linearGradient><linearGradient id="_Linear4" x1="0" y1="0" x2="1" y2="0" gradientUnits="userSpaceOnUse" gradientTransform="matrix(20.728,38.264,-38.264,20.728,189.594,100.736)"><stop offset="0" style="stop-color:#ff9c58;stop-opacity:1"/><stop offset="1" style="stop-color:#ff58c0;stop-opacity:1"/></linearGradient><linearGradient id="_Linear5" x1="0" y1="0" x2="1" y2="0" gradientUnits="userSpaceOnUse" gradientTransform="matrix(20.728,38.264,-38.264,20.728,189.594,100.736)"><stop offset="0" style="stop-color:#ff9c58;stop-opacity:1"/><stop offset="1" style="stop-color:#ff58c0;stop-opacity:1"/></linearGradient></defs></svg>